<?xml version="1.0"?><svg width="717.82111" height="1032.859" xmlns="http://www.w3.org/2000/svg" xmlns:xlink="http://www.w3.org/1999/xlink">
 <title>Brown Tree Branch</title>
 <defs>
  <linearGradient x1="288.57141" y1="32.362179" x2="358.12326" y2="605.42957" id="linearGradient3284-354-231" xlink:href="#linearGradient3264-145-450" gradientUnits="userSpaceOnUse"/>
  <linearGradient id="linearGradient3264-145-450">
   <stop id="stop4750" offset="0" stop-color="#6bbab6"/>
   <stop id="stop4752" offset="1" stop-color="#cfcfcf"/>
  </linearGradient>
  <linearGradient x1="282.84271" y1="648.30115" x2="242.38866" y2="32.10812" id="linearGradient3002-349-87" xlink:href="#linearGradient2996-674-27" gradientUnits="userSpaceOnUse"/>
  <linearGradient id="linearGradient2996-674-27">
   <stop id="stop4756" offset="0" stop-color="#cfcfcf"/>
   <stop id="stop4758" offset="1" stop-opacity="0.4" stop-color="#cfcfcf"/>
  </linearGradient>
  <linearGradient x1="343.53775" y1="949.63672" x2="350.58408" y2="495.21933" id="linearGradient3279-946-905" xlink:href="#linearGradient3273-97-114" gradientUnits="userSpaceOnUse" gradientTransform="matrix(0.977519,-0.2108473,0.2108473,0.977519,-4.3436519,216.05375)"/>
  <linearGradient id="linearGradient3273-97-114">
   <stop id="stop4762" offset="0" stop-color="#0c0c0c"/>
   <stop id="stop4764" offset="1" stop-color="#a6a6a6"/>
  </linearGradient>
  <linearGradient x1="646.55713" y1="1011.7061" x2="588.94861" y2="705.40942" id="linearGradient3894-837-942" xlink:href="#linearGradient3888-174-937" gradientUnits="userSpaceOnUse" gradientTransform="matrix(1,0,0,1.556701,0,-603.84641)"/>
  <linearGradient id="linearGradient3888-174-937">
   <stop id="stop4768" offset="0" stop-color="#0c0c0c"/>
   <stop id="stop4770" offset="1" stop-opacity="0" stop-color="#0c0c0c"/>
  </linearGradient>
  <linearGradient x1="288.57141" y1="32.362179" x2="358.12326" y2="605.42957" id="linearGradient3284-354-231-832" xlink:href="#linearGradient3264-145-450-268" gradientUnits="userSpaceOnUse"/>
  <linearGradient id="linearGradient3264-145-450-268">
   <stop id="stop15330" offset="0" stop-color="#60a8a4"/>
   <stop id="stop15332" offset="1" stop-color="#bababa"/>
  </linearGradient>
  <linearGradient x1="282.84271" y1="648.30115" x2="242.38866" y2="32.10812" id="linearGradient3002-349-87-941" xlink:href="#linearGradient2996-674-27-15" gradientUnits="userSpaceOnUse"/>
  <linearGradient id="linearGradient2996-674-27-15">
   <stop id="stop15336" offset="0" stop-color="#bababa"/>
   <stop id="stop15338" offset="1" stop-opacity="0.4" stop-color="#bababa"/>
  </linearGradient>
  <linearGradient x1="343.53775" y1="949.63672" x2="350.58408" y2="495.21933" id="linearGradient3279-946-905-908" xlink:href="#linearGradient3273-97-114-855" gradientUnits="userSpaceOnUse" gradientTransform="matrix(0.977519,-0.2108473,0.2108473,0.977519,-4.3436519,216.05375)"/>
  <linearGradient id="linearGradient3273-97-114-855">
   <stop id="stop15342" offset="0" stop-color="#0c0c0c"/>
   <stop id="stop15344" offset="1" stop-color="#959595"/>
  </linearGradient>
  <linearGradient x1="646.55713" y1="1011.7061" x2="588.94861" y2="705.40942" id="linearGradient3894-837-942-214" xlink:href="#linearGradient3888-174-937-467" gradientUnits="userSpaceOnUse" gradientTransform="matrix(1,0,0,1.556701,0,-603.84641)"/>
  <linearGradient id="linearGradient3888-174-937-467">
   <stop id="stop15348" offset="0" stop-color="#0c0c0c"/>
   <stop id="stop15350" offset="1" stop-opacity="0" stop-color="#0c0c0c"/>
  </linearGradient>
  <linearGradient x1="288.57141" y1="32.362179" x2="358.12326" y2="605.42957" id="linearGradient3284-354-231-832-13" xlink:href="#linearGradient3264-145-450-268-642" gradientUnits="userSpaceOnUse"/>
  <linearGradient id="linearGradient3264-145-450-268-642">
   <stop id="stop15960" offset="0" stop-color="#6bbbb6"/>
   <stop id="stop15962" offset="1" stop-color="#cfcfcf"/>
  </linearGradient>
  <linearGradient x1="282.84271" y1="648.30115" x2="242.38866" y2="32.10812" id="linearGradient3002-349-87-941-998" xlink:href="#linearGradient2996-674-27-15-9" gradientUnits="userSpaceOnUse"/>
  <linearGradient id="linearGradient2996-674-27-15-9">
   <stop id="stop15966" offset="0" stop-color="#cfcfcf"/>
   <stop id="stop15968" offset="1" stop-opacity="0.4" stop-color="#cfcfcf"/>
  </linearGradient>
  <linearGradient x1="343.53775" y1="949.63672" x2="350.58408" y2="495.21933" id="linearGradient3279-946-905-908-105" xlink:href="#linearGradient3273-97-114-855-81" gradientUnits="userSpaceOnUse" gradientTransform="matrix(0.977519,-0.2108473,0.2108473,0.977519,-4.3436519,216.05375)"/>
  <linearGradient id="linearGradient3273-97-114-855-81">
   <stop id="stop15972" offset="0" stop-color="#0d0d0d"/>
   <stop id="stop15974" offset="1" stop-color="#a6a6a6"/>
  </linearGradient>
  <linearGradient x1="646.55713" y1="1011.7061" x2="588.94861" y2="705.40942" id="linearGradient3894-837-942-214-747" xlink:href="#linearGradient3888-174-937-467-178" gradientUnits="userSpaceOnUse" gradientTransform="matrix(1,0,0,1.556701,0,-603.84641)"/>
  <linearGradient id="linearGradient3888-174-937-467-178">
   <stop id="stop15978" offset="0" stop-color="#0d0d0d"/>
   <stop id="stop15980" offset="1" stop-opacity="0" stop-color="#0d0d0d"/>
  </linearGradient>
  <linearGradient x1="288.57141" y1="32.362179" x2="358.12326" y2="605.42957" id="linearGradient3284-354-231-832-13-48" xlink:href="#linearGradient3264-145-450-268-642-565" gradientUnits="userSpaceOnUse"/>
  <linearGradient id="linearGradient3264-145-450-268-642-565">
   <stop id="stop16622" offset="0" stop-color="#77d0ca"/>
   <stop id="stop16624" offset="1" stop-color="#e6e6e6"/>
  </linearGradient>
  <linearGradient x1="282.84271" y1="648.30115" x2="242.38866" y2="32.10812" id="linearGradient3002-349-87-941-998-339" xlink:href="#linearGradient2996-674-27-15-9-796" gradientUnits="userSpaceOnUse"/>
  <linearGradient id="linearGradient2996-674-27-15-9-796">
   <stop id="stop16628" offset="0" stop-color="#e6e6e6"/>
   <stop id="stop16630" offset="1" stop-opacity="0.4" stop-color="#e6e6e6"/>
  </linearGradient>
  <linearGradient x1="343.53775" y1="949.63672" x2="350.58408" y2="495.21933" id="linearGradient3279-946-905-908-105-769" xlink:href="#linearGradient3273-97-114-855-81-316" gradientUnits="userSpaceOnUse" gradientTransform="matrix(0.977519,-0.2108473,0.2108473,0.977519,-4.3436519,216.05375)"/>
  <linearGradient id="linearGradient3273-97-114-855-81-316">
   <stop id="stop16634" offset="0" stop-color="#0e0e0e"/>
   <stop id="stop16636" offset="1" stop-color="#b8b8b8"/>
  </linearGradient>
  <linearGradient x1="646.55713" y1="1011.7061" x2="588.94861" y2="705.40942" id="linearGradient3894-837-942-214-747-718" xlink:href="#linearGradient3888-174-937-467-178-480" gradientUnits="userSpaceOnUse" gradientTransform="matrix(1,0,0,1.556701,0,-603.84641)"/>
  <linearGradient id="linearGradient3888-174-937-467-178-480">
   <stop id="stop16640" offset="0" stop-color="#0e0e0e"/>
   <stop id="stop16642" offset="1" stop-opacity="0" stop-color="#0e0e0e"/>
  </linearGradient>
 </defs>
 <g>
  <title>Layer 1</title>
  <g id="layer3" display="inline" opacity="0.704762"/>
  <g id="layer2" display="inline"/>
  <circle id="svg_1" r="8.544006" cy="538.140991" cx="115.178894" stroke-width="5" stroke="#e27faf" fill="#e27faf"/>
  <circle transform="rotate(146.21884155273438 319.65585327148443,654.1426391601561) " id="svg_3" r="16.044006" cy="654.142694" cx="319.655849" stroke-width="5" stroke="#e27faf" fill="#e27faf"/>
  <circle id="svg_8" r="8.544006" cy="486.141001" cx="355.678894" stroke-width="5" stroke="#e27faf" fill="#e27faf"/>
  <circle id="svg_17" r="5.044006" cy="664.641001" cx="444.678894" stroke-width="5" stroke="#e27faf" fill="#e27faf"/>
  <circle id="svg_21" r="5.044006" cy="559.141009" cx="272.67889" stroke-width="5" stroke="#e27faf" fill="#e27faf"/>
  <circle id="svg_12" r="16.044006" cy="453.141018" cx="325.678894" stroke-width="5" stroke="#e27faf" fill="#e27faf"/>
  <circle id="svg_38" r="16.044006" cy="316.141025" cx="505.678894" stroke-width="5" stroke="#e27faf" fill="#e27faf"/>
  <circle id="svg_4" r="8.544006" cy="362.141001" cx="535.678894" stroke-width="5" stroke="#e27faf" fill="#e27faf"/>
  <circle id="svg_33" r="5.044006" cy="281.141017" cx="450.678886" stroke-width="5" stroke="#e27faf" fill="#e27faf"/>
  <circle id="svg_47" r="5.044006" cy="205.140994" cx="343.678883" stroke-width="5" stroke="#e27faf" fill="#e27faf"/>
  <circle id="svg_26" r="8.544006" cy="273.14101" cx="477.678894" stroke-width="5" stroke="#e27faf" fill="#e27faf"/>
  <circle id="svg_16" r="8.544006" cy="644.141008" cx="439.678894" stroke-width="5" stroke="#e27faf" fill="#e27faf"/>
  <g id="layer1" display="inline">
   <path stroke="#542d0a" d="m454.739807,130.481934c3.408997,-0.473801 5.915253,0.399323 8.024414,1.922043c0,0 0,0.000015 0,0.000015c1.161804,0.741531 2.125916,1.753098 2.981598,2.866806c0.855713,1.113739 1.602142,2.332718 2.221588,3.565292c1.238922,2.465164 1.938568,5.024918 1.520172,7.023514c-0.251526,1.201523 0.200745,2.008926 0.598053,2.465897c0.955566,0.456833 2.161743,0.756668 3.588013,0.823257c1.42627,0.066605 3.074219,-0.103699 4.884979,-0.594101c1.958221,-0.538055 4.156555,-1.783859 6.312134,-3.982254c0,0 0,0 0,-0.000015c2.041931,-2.25238 3.419403,-5.142212 3.958679,-8.270554c0.095428,-0.465851 0.177277,-0.92894 0.246155,-1.387192c0.426208,-8.088219 -2.248779,-16.042023 -7.716919,-22.175316c0,0 0,0 0,0c-7.73999,-7.722946 -17.457764,-10.912094 -26.248047,-10.559387c0,0 0,0 0,0c-10.73172,0.072182 -20.988983,4.667747 -28.45459,12.762833c0,0 0,0 0,0.000015c-6.397827,6.753555 -10.664032,16.054207 -11.284943,26.45887c-0.009918,0.43454 -0.013916,0.867645 -0.012177,1.299271c0.025726,5.369232 0.924591,10.620605 2.605316,15.555664c1.680756,4.935059 4.143402,9.553802 7.245209,13.624283c2.862,3.987488 6.369873,7.642105 10.466797,10.707275c4.096832,3.065155 8.782806,5.540756 13.976105,7.134583c5.338074,1.498428 10.853027,2.018417 16.312866,1.579025c5.459839,-0.439392 10.864441,-1.83812 15.945526,-4.152954c9.647369,-4.333557 18.169006,-11.71846 24.019135,-21.415131c5.875763,-9.879349 8.88269,-21.488205 8.671814,-33.187775c-0.171997,-11.327438 -3.332428,-22.691582 -9.419861,-32.416672c-7.799225,-12.238029 -19.515015,-21.21936 -32.614166,-25.776917c-12.910736,-4.533882 -27.067963,-4.989281 -40.208405,-1.087112c-9.637726,2.881744 -18.530945,8.131325 -25.850769,15.17704c-7.683044,7.44297 -13.527435,16.528915 -17.709961,26.158516c-5.302734,12.278534 -8.277191,25.197678 -9.635193,38.156067c-1.358002,12.958374 -1.103912,25.952896 0.061462,38.429413c1.63382,17.99527 5.04306,35.412338 9.922211,51.691406c4.879181,16.279037 11.226807,31.416458 18.614899,45.069229c0,0 0,0 0,0.000031c5.358459,9.894562 11.219574,18.976227 17.12912,27.398773c2.175354,3.1008 4.349304,6.0961 6.419922,9.064728c1.430756,2.061462 2.821747,4.009155 3.837616,6.045471l-9.755524,5.418579c-0.456787,-1.018463 -1.575775,-2.486969 -3.009521,-4.613586c-2.035034,-2.90683 -4.209564,-5.900024 -6.422424,-9.059509c0,-0.000031 0,-0.000031 0,-0.000031c-6.365814,-9.079834 -12.384827,-18.599792 -17.763153,-28.666931c-0.000031,0 -0.000031,-0.000031 -0.000031,-0.000031c-16.599396,-31.222229 -26.099731,-66.181213 -28.765869,-101.563507c0,-0.000015 0,-0.000015 0,-0.000031c-2.266235,-26.624908 0.023285,-55.188828 11.659119,-81.304588c4.733765,-10.48214 11.40567,-20.359123 20.129669,-28.559944c0,0 0,0 0,0c8.377167,-7.767975 18.40506,-13.42495 29.25351,-16.450424c14.662384,-4.029099 30.17868,-3.26202 44.364075,2.032013c14.205231,5.216911 26.869202,15.24939 35.405365,29.075127c6.485291,10.804535 9.808289,23.263634 9.785583,35.800713c0,0.000015 0,0.000031 0,0.000046c0.030762,12.573486 -3.346985,25.12326 -10.021698,35.988937c-6.4534,10.308792 -15.70166,18.249634 -26.441772,22.87291c-10.808533,4.745529 -23.114929,5.753418 -35.024292,2.269745c-11.000275,-3.576736 -20.004364,-10.67131 -26.190643,-19.558502c-6.571533,-8.758392 -10.56665,-20.22966 -10.243896,-32.92186c0.78067,-11.362869 5.264801,-21.368973 12.077881,-28.723846c0,-0.000008 0,-0.000008 0,-0.000023c7.989838,-8.898849 18.956238,-14.16671 30.840698,-14.592484c9.522491,-0.777344 20.367554,2.515694 29.756836,11.24424c0.229065,0.247185 0.454193,0.496956 0.675476,0.749229c2.004669,2.285637 3.577667,4.637856 4.819397,6.979485c1.24173,2.341629 2.151947,4.673744 2.80835,6.95681c1.312775,4.566154 1.627777,8.923836 1.329712,13.012962c-0.422638,4.596451 -1.975403,8.560165 -4.352173,11.893753c-2.666687,3.441147 -5.249542,5.662537 -7.622833,6.947937c-2.770813,1.541809 -5.364319,2.661316 -7.831543,3.473862c-2.467255,0.812531 -4.812225,1.312485 -6.98996,1.536789c-1.725677,0.261536 -3.503967,0.469482 -5.354553,0.624115c-3.03949,0.253983 -5.917664,0.044525 -8.464111,-0.543884c0,0 0,0 0,0c-3.390137,-0.743286 -6.16272,-2.128906 -8.273834,-4.06131c-1.055603,-0.966202 -1.947662,-2.07399 -2.646851,-3.335892c-0.699188,-1.261887 -1.205658,-2.678879 -1.449921,-4.267044c-0.25769,-1.675293 -0.32547,-3.458557 -0.121155,-5.23938c0.204285,-1.780838 0.68399,-3.559341 1.495789,-5.21315c0.811829,-1.653793 1.95816,-3.181534 3.423645,-4.456787c1.465485,-1.275253 3.247681,-2.293732 5.254791,-2.965439c1.023376,-0.34082 2.111938,-0.593842 3.25705,-0.753021c0,0 0.000061,0.000015 0.000061,0.000015z" id="path2316-4" fill-rule="evenodd" fill="#542d0a"/>
   <path stroke="#542d0a" d="m275.594025,205.972473c1.269928,-1.379395 2.543091,-2.157257 3.856812,-2.586441c0,0 0,-0.000015 0,-0.000015c1.244476,-0.52951 2.485138,-0.486053 3.744446,-0.287872c1.259369,0.198166 2.543945,0.552338 3.801727,0.952118c1.257813,0.39978 2.486206,0.859863 3.535767,1.443192c1.049591,0.583313 1.914093,1.304092 2.417938,2.169342c0.519928,0.892883 1.246033,1.099869 1.752167,1.111359c0.823883,-0.352341 1.715393,-0.977798 2.611115,-1.927872c0.998993,-1.076355 1.926392,-2.736282 2.375336,-5.202362c0.310638,-2.184891 0.019775,-4.591721 -1.030518,-6.885712c0,0 0,0 0,0c-0.947235,-2.368301 -2.391876,-4.548294 -4.025269,-6.259521c-3.026947,-2.596893 -6.702332,-4.352402 -10.765839,-5.027023c-0.000061,0 -0.000061,0 -0.000061,0c-8.352692,-0.832657 -15.771545,2.066513 -20.984467,6.680374c0,0 0,0 0,0c-6.574005,5.428482 -10.815781,13.356262 -11.795044,22.095718c0,0.000015 0,0.000015 0,0.000015c-0.928284,7.356247 0.590302,15.241821 4.894653,22.119156c0,0 0,0 0,0c3.411407,4.989548 7.782196,8.769821 12.565033,11.272903c2.351807,1.228439 4.830353,2.176208 7.376343,2.819443c3.576447,1.033112 7.40976,1.534119 11.355255,1.369888c3.945435,-0.16423 8.003021,-0.993744 11.995056,-2.632446c4.001373,-1.768494 7.666656,-4.224533 10.859833,-7.249603c3.193176,-3.02507 5.914215,-6.619125 8.014374,-10.629257c3.997284,-7.528641 5.922119,-16.386002 5.127716,-25.385361c-0.864075,-9.062927 -4.26767,-17.755356 -9.737457,-24.901871c-5.245361,-6.902405 -12.36026,-12.345566 -20.594177,-15.317947c-8.885742,-3.209076 -18.797119,-4.048859 -28.409332,-1.662704c-7.38739,1.787628 -14.624329,5.773209 -20.139725,12.146835c-5.383545,6.433945 -9.006531,14.24884 -10.690506,22.467117c-1.771652,8.727325 -1.53685,17.668823 0.195114,26.120926c2.132797,10.266632 6.196182,19.812897 11.572891,28.391495c5.376678,8.578568 12.063477,16.188492 19.411407,22.613693c5.493408,4.840027 11.40625,9.140472 17.672913,12.698853c5.70871,3.236359 11.666351,5.823822 17.719391,7.829132c12.404266,4.091156 24.94751,5.844299 37.003723,7.488434c7.406158,1.017731 14.68692,2.039429 21.787354,3.240875c7.100433,1.201508 14.020294,2.583344 20.710419,4.27713c19.565796,4.946869 37.181519,12.358398 52.252686,20.482361l-4.284973,8.778564c-16.046082,-8.562927 -32.902222,-15.350098 -50.232727,-19.890533c-13.303802,-3.516113 -27.24472,-5.657745 -41.511169,-7.838989c-12.328064,-1.825226 -25.309113,-3.944183 -38.325989,-8.432526c0,-0.000031 0,-0.000031 0,-0.000031c-6.515656,-2.278442 -12.886078,-5.192657 -18.973694,-8.78241c-6.748474,-3.99826 -12.999115,-8.723022 -18.721283,-13.959564c0,0 0,0 0,0c-15.600815,-13.989044 -27.969177,-33.194016 -32.339798,-55.649872c-1.747543,-9.242966 -1.811417,-19.085419 0.314789,-28.817062c2.020599,-9.111435 6.211487,-17.747635 12.411484,-24.929001c6.576645,-7.24501 14.767029,-11.667313 23.072784,-13.456055c10.608032,-2.389954 21.385254,-1.371033 31.065277,2.349457c8.934326,3.416565 16.649506,9.427231 22.337952,17.175583c5.742065,7.742584 9.362823,17.182755 10.19455,27.269745c0.708344,9.649658 -1.387817,19.21785 -5.926819,27.497467c-4.525299,8.401886 -11.694153,15.233459 -20.703217,19.115738c0,0 0,0 -0.000031,0c-8.52124,3.352081 -17.35318,3.514847 -25.239532,1.121613c-0.000061,0 -0.000061,0 -0.000061,0c-8.080658,-2.093872 -15.811035,-7.214813 -21.486038,-15.319305c-4.763397,-7.547897 -6.580032,-16.067444 -5.701996,-24.10965c0.895554,-9.636612 5.313507,-18.490402 12.554733,-24.828033c3.806732,-3.664917 8.927155,-6.432587 15.01532,-7.594574c2.974792,-0.567764 5.950562,-0.71582 8.861053,-0.539078c2.414795,0.349869 4.58017,0.980988 6.528625,1.791702c1.948425,0.810699 3.68042,1.801849 5.228943,2.911774c3.097076,2.219803 5.469269,4.895859 7.314697,7.850204c1.888123,3.156586 2.813568,6.5513 2.858673,10.066025c-0.096863,3.546692 -0.690125,6.368484 -1.640045,8.463669c-1.011902,2.296768 -2.121002,4.317398 -3.301849,6.087021c-1.180817,1.769623 -2.437012,3.287308 -3.702179,4.513046c0,0 0,0.000015 0,0.000015c-0.483521,0.518082 -0.980316,1.033752 -1.491119,1.547577c-2.299744,2.313278 -4.762543,3.999512 -7.125916,5.035858c0,0 0,0 0,0c-2.490997,1.130936 -4.847321,1.539917 -7.044067,1.306107c-2.196808,-0.233826 -4.26767,-1.099014 -6.044922,-2.843506c-1.909241,-1.873917 -3.543274,-4.403839 -4.158478,-7.334167c-0.307617,-1.465179 -0.36142,-3.025497 -0.119476,-4.59726c0.241882,-1.571747 0.780396,-3.151596 1.58844,-4.63324c0.609406,-1.107162 1.378418,-2.169403 2.290955,-3.160645c0.000031,0 0.000031,0 0.000031,-0.000015z" id="path3114-9" fill-rule="evenodd" fill="#542d0a"/>
   <path stroke="#542d0a" d="m401.084961,398.271851c-0.880188,2.442535 -1.140106,4.231171 -0.999054,5.8992c0.140991,1.667999 0.67746,3.208099 1.467529,4.683105c0.789978,1.474976 1.843597,2.864746 3.029694,3.992767c1.186127,1.127991 2.509186,1.97998 3.730927,2.409241c1.061249,0.372925 2.72821,0.657135 4.248199,1.029755c1.52002,0.37265 2.897522,0.860748 3.228424,1.962402c0.140808,0.468842 -0.094513,1.375305 -0.646606,2.536865c-0.552094,1.16153 -1.426147,2.573334 -2.540833,4.028107c0,0 0,0 0,0c-1.011627,1.24646 -2.195251,2.489227 -3.428894,3.617676c-1.233673,1.128479 -2.516083,2.142731 -3.69278,2.995605c-1.397919,1.013275 -3.646362,2.707916 -7.049744,4.433228c-1.701691,0.862671 -3.69339,1.725739 -5.998688,2.457306c-2.305359,0.731567 -4.925507,1.331757 -7.851227,1.630524c0,0 0,0 0,0c-4.637482,0.453125 -9.945923,0.227295 -15.590851,-1.210449c-5.644989,-1.437775 -11.631958,-4.099518 -17.256592,-8.378418c-3.33432,-2.570526 -6.51001,-5.611267 -9.398041,-9.108398c-2.888,-3.497131 -5.487762,-7.451355 -7.667297,-11.796173c-2.432007,-4.848236 -4.030457,-9.464447 -5.11554,-13.751068c-0.891602,-3.475586 -1.30304,-6.774353 -1.388397,-9.876221c-0.085388,-3.101929 0.156403,-6.008698 0.628815,-8.733398c0.472412,-2.724731 1.176178,-5.268524 2.05896,-7.657318c0.882782,-2.388763 1.945129,-4.623322 3.169342,-6.728729c2.680206,-4.449524 5.808838,-8.245605 9.526489,-11.723785c3.71759,-3.478119 8.046844,-6.646576 13.262939,-9.409241c3.877258,-2.091888 8.263519,-4.029968 13.339996,-5.59787c5.076447,-1.567963 10.852753,-2.772858 17.41922,-3.143158c4.828888,-0.278717 10.085358,-0.084442 15.706085,0.88623c5.620728,0.970673 11.612976,2.715302 17.736359,5.669067l3.855804,-8.814301c-11.938934,-5.749176 -25.041748,-8.144196 -37.969238,-7.127625c-11.880768,0.901733 -23.57486,4.621918 -34.050354,11.059875c0,0 0,0 0,0c-9.454681,5.62616 -18.000336,14.164703 -23.829163,25.47818c-5.549713,11.275269 -6.795044,24.427185 -3.203644,36.963043c0,0 0,0 0,0c4.005096,13.850311 11.986206,26.85025 23.778198,36.419312c9.831299,7.849579 22.114258,12.321442 35.121399,12.141663c4.769165,-0.101868 9.489227,-0.9375 14.016907,-2.477142c2.375031,-0.809204 4.499054,-1.73233 6.422211,-2.706482c1.923187,-0.974152 3.645874,-2.000092 5.216431,-3.049011c3.141052,-2.097778 5.681641,-4.270691 7.932281,-6.562195c2.187897,-2.451324 4.007111,-4.892212 5.662018,-7.600952c1.654938,-2.70871 3.148315,-5.691132 4.434723,-9.266479c0.887909,-2.467926 1.257111,-5.297516 1.079346,-8.054626c-0.177795,-2.757141 -0.89743,-5.435883 -2.001526,-7.710388c-1.104065,-2.274536 -2.582764,-4.144409 -4.214142,-5.440338c-1.6315,-1.29599 -3.409119,-2.022064 -5.177765,-2.136078c-1.514374,-0.097687 -3.213654,-0.062622 -4.93338,0.157806c-1.719666,0.220398 -3.460022,0.623718 -5.068939,1.230499c-1.608948,0.60672 -3.085846,1.413177 -4.291138,2.454193c-1.205292,1.041016 -2.130127,2.312256 -2.708466,3.924194z" id="path3133-3" fill-rule="evenodd" fill="#542d0a"/>
   <path stroke="#542d0a" d="m402.647278,483.564545c0.627686,-0.128998 1.078827,-0.129883 1.463348,0.017792c0,0 0,0 0,0c0.613403,0.225372 1.128265,0.701019 1.592255,1.373932c0.46405,0.672943 0.867767,1.536865 1.174713,2.468353c0.306946,0.931488 0.512512,1.929901 0.597961,2.842773c0.085388,0.912933 0.049438,1.739258 -0.063782,2.309387c-0.11554,0.58197 -0.399139,1.403748 -0.608124,2.189758c-0.209076,0.786041 -0.336792,1.542542 -0.001648,2.002716c0.663055,0.91095 2.030151,1.185089 3.572784,1.024475c1.542694,-0.160675 3.224731,-0.763885 4.649017,-1.328003c0.19989,-0.079315 0.390289,-0.158966 0.572632,-0.239319c0.832031,-0.359375 1.504181,-0.724792 2.152985,-1.140015c0.648834,-0.415253 1.275299,-0.88089 1.991119,-1.486298c0.71579,-0.605499 1.523804,-1.349091 2.482483,-2.374939c0.958679,-1.02594 2.075104,-2.332306 3.281403,-4.146667c0.971161,-1.465424 1.985535,-3.255249 2.882324,-5.496246c0.896759,-2.240875 1.68277,-4.940216 2.008301,-8.167603c0.175232,-2.106262 0.014343,-4.323181 -0.574188,-6.547211c-0.588562,-2.223969 -1.607086,-4.458527 -3.108826,-6.492615c-1.294739,-1.752563 -2.833221,-3.396423 -4.60202,-4.889801c-1.76886,-1.493378 -3.769775,-2.835907 -5.933319,-3.993683c-3.723358,-2.039307 -8.046509,-3.787506 -12.973877,-4.897644c-4.927338,-1.110138 -10.467957,-1.585449 -16.425018,-0.919312l-0.567932,-5.667725c11.121063,-1.269348 22.519409,0.981537 32.476959,6.567078c4.314941,2.299286 8.617249,5.747833 12.163788,10.622314c0.000061,0 0.000061,0 0.000061,0c3.266571,4.490387 4.962921,10.405304 4.355408,16.903503c0,0 0,0 0,0c-0.742889,5.752472 -2.917358,11.185577 -6.3172,15.770844c-2.134491,2.860626 -4.682251,5.325287 -7.54071,7.313354c-1.52594,1.059204 -2.934723,1.85907 -4.236084,2.505127c-1.321136,0.673218 -2.544556,1.174988 -3.708862,1.573547c-1.164337,0.39859 -2.27066,0.693481 -3.38147,0.913757c-1.110809,0.220245 -2.226715,0.366058 -3.421234,0.429443c-1.194427,0.063507 -2.468231,0.045715 -3.896484,-0.107025c-0.346558,-0.038391 -0.700287,-0.086517 -1.061615,-0.145905c-1.402344,-0.230499 -2.729523,-0.841034 -3.846222,-1.692047c-1.116699,-0.851135 -2.022369,-1.938904 -2.665771,-3.095428c-0.643402,-1.156616 -1.025452,-2.378906 -1.175873,-3.523621c-0.150482,-1.144684 -0.071686,-2.210785 0.15033,-3.110443c0.367371,-1.488678 1.093658,-2.5849 1.888519,-3.438232c0.794952,-0.853271 1.662018,-1.473633 2.475342,-1.987122c0.813293,-0.513519 1.576935,-0.920715 2.269897,-1.248474c0.692993,-0.327728 1.317871,-0.571381 1.908875,-0.692841l-0.000244,0.000061z" id="path3167-8" fill-rule="evenodd" fill="#542d0a"/>
   <path stroke="#542d0a" d="m433.515198,264.266052c0,0 -0.469543,0.462372 -1.29483,1.355286c-0.825256,0.892914 -2.005768,2.221466 -3.380249,4.008484c-1.374451,1.786987 -2.941956,4.036194 -4.50238,6.758484c-1.560394,2.72226 -3.111176,5.919647 -4.439606,9.547913c-1.27829,3.801147 -2.164093,7.825287 -2.578949,11.855255c-0.414825,4.029999 -0.360229,8.062378 0.104431,11.882599c0,0 0,0 0,0c0.613159,4.813354 1.65506,9.150604 2.81604,12.858337c1.16098,3.707703 2.431915,6.790863 3.519012,9.187042c1.017365,2.284241 1.858826,3.997955 2.371338,5.029785c1.011444,2.036774 2.520996,3.933136 4.341888,5.483002c1.820923,1.549805 3.951599,2.754669 6.207306,3.486359c4.511353,1.463379 9.493744,1.039948 13.724213,-1.961121c4.230774,-3.001221 5.811066,-6.945313 5.793579,-10.626434c-0.008667,-1.840546 -0.417999,-3.621582 -1.123291,-5.246368c-0.705353,-1.624756 -1.706146,-3.095276 -2.934387,-4.344452c-0.694153,-0.705994 -1.630707,-1.37738 -2.739899,-2.053955c-2.538116,-1.568298 -6.054016,-3.097107 -9.551483,-5.102631c-1.748718,-1.002747 -3.489899,-2.123749 -5.092224,-3.38327c-1.602356,-1.259491 -3.065247,-2.658813 -4.263947,-4.155518c-0.718842,-0.901093 -1.337952,-1.839325 -1.831024,-2.786682c-1.395844,-2.681305 -2.419098,-5.608765 -3.026886,-8.629242c-0.607758,-3.020477 -0.799988,-6.132751 -0.618866,-9.187164c0.280945,-3.780518 1.045685,-7.278839 1.981018,-10.302826c0.935303,-3.023987 2.039276,-5.577881 3.049927,-7.609406c1.010712,-2.031525 1.927795,-3.546631 2.55838,-4.555664c0.630615,-1.009033 0.97464,-1.518066 0.910889,-1.507813z" id="path3207-2" fill-rule="evenodd" fill="#542d0a"/>
   <path stroke="#542d0a" d="m283.905121,939.208618c4.509857,-41.211243 13.135712,-81.335022 24.515015,-120.123047c11.587921,-39.533875 25.968903,-77.800232 42.23938,-114.876404c0,-0.000061 0.000031,-0.000061 0.000031,-0.000061c31.237579,-71.171265 69.239166,-138.242615 111.031128,-202.048523c0,0 0,0 0,0c32.370789,-49.427887 67.078003,-96.972443 103.840271,-142.486176c0,0 0,0 0,-0.000031c10.911743,-13.508911 21.99884,-26.83136 33.328735,-39.874176c3.060425,-3.523132 6.132629,-7.019012 9.22876,-10.472717c0,0 0.000061,0 0.000061,-0.000031c0.803223,-0.895996 1.604858,-1.785278 2.406372,-2.66568c0,0 0,0 0,0c0.203186,-0.223022 0.404602,-0.44339 0.604492,-0.660858c-0.162476,0.146332 -0.325378,0.29306 -0.488708,0.440216c17.872253,-12.08725 35.653198,-24.087158 53.342957,-35.999634c-1.803833,7.739502 -3.492126,15.36853 -5.065125,22.887146l-36.21698,27.040222l2.041809,-1.906708c-0.168213,0.203339 -0.342346,0.414734 -0.5224,0.633972c-0.71991,0.876282 -1.44812,1.77124 -2.186279,2.683044c0,0 0,0 0,0c-2.845337,3.514221 -5.68042,7.086487 -8.51886,10.703857c-10.507446,13.390961 -20.778137,27.063599 -30.89093,40.937012c0,0.000031 0,0.000031 -0.000061,0.000031c-34.067932,46.744812 -65.931458,95.251678 -95.336029,145.332733c-37.93924,64.672729 -71.776611,131.749268 -98.487488,201.586304c0,0 0,0 0,0c-13.906128,36.34967 -25.862366,73.346008 -34.974335,110.924927c-6.128815,25.312439 -11.00882,50.85022 -14.220001,76.466858c-18.803467,9.2995 -37.393799,19.73407 -55.671814,31.477722z" id="path3917-5" fill-rule="evenodd" fill="#542d0a"/>
   <path stroke="#542d0a" d="m424.289581,323.272888c12.151031,4.578308 23.758057,11.105652 34.036469,19.709961c10.612793,8.897247 19.659119,20.015411 26.286621,32.739258c0,0 0,0 0,0c14.481903,28.233704 16.06955,62.3013 8.555847,93.185608c0,0 0,0 0,0.000061c-6.207672,26.358734 -15.537415,52.3974 -29.51828,76.213318c-3.709412,6.311401 -7.830597,12.53595 -12.526123,18.487976c-0.067017,0.0849 -0.134308,0.169922 -0.201843,0.255066c-5.61203,-2.657288 -11.129242,-5.503113 -16.353302,-8.751953c0,0 0,0 0,0c-1.420441,-0.883301 -2.808044,-1.806763 -4.132599,-2.804138c0,0 0,0 0,0c-0.336914,-0.253662 -0.659271,-0.521912 -0.963257,-0.809021c0,0 0,0 0,0c0,0 0,0 0,0c-0.066772,-0.082458 -0.126282,-0.171875 -0.17804,-0.268738c0,0 0,0 0,0c0,0 0,0 0,0c2.618866,3.088989 5.261108,6.206421 7.926727,9.352356c0.002472,0.002502 0.004883,0.005859 0.007294,0.008728c-0.002411,-0.002563 -0.004822,-0.00592 -0.007294,-0.008728c-2.66568,-3.145996 -5.331604,-6.291199 -7.997742,-9.43573c-0.017334,0.016479 -0.027924,0.026306 -0.031616,0.029663c0.027588,-0.026306 0.068268,-0.066406 0.122437,-0.119873c0,0 0,0 0,0c0.212982,-0.210205 0.447601,-0.452637 0.706421,-0.72406c0,0 0,0 0.000061,0c0,0 0,0 0,0c1.006683,-1.055359 2.018005,-2.211914 3.054382,-3.44458c0,0 0,0 0,0c3.953674,-4.701599 7.585846,-9.887573 11.041138,-15.357849c13.038147,-20.613007 22.190979,-44.167511 28.803558,-68.626526c0,0 0,0 0,0c0,0 0,0 0,0c6.878387,-26.46286 6.852264,-55.463898 -4.644806,-78.442017c0,0 0,-0.000031 0,-0.000031c-5.082672,-10.540985 -12.35083,-20.028229 -21.014771,-27.767487c-9.158722,-8.213409 -20.054993,-14.522736 -31.667023,-18.991547c2.771698,-4.872437 5.670319,-9.685211 8.695679,-14.429718l0.000061,0z" id="path3921-7" fill-rule="evenodd" fill="#542d0a"/>
   <path stroke="#542d0a" d="m165.122482,647.016052c1.411652,-0.688843 2.515182,-1.310547 3.417526,-1.911804c2.042099,-1.346741 3.048874,-2.60083 4.444351,-3.808899c0.697769,-0.604004 1.495743,-1.190857 2.584183,-1.727783c1.088425,-0.536987 2.468643,-1.026428 4.324829,-1.386536c4.898087,-0.907654 9.880539,-1.373535 14.862564,-1.460266c10.52449,-0.177368 21.058029,1.395935 31.127792,4.52533c11.097412,3.449402 21.631851,8.826782 31.061035,15.79895c10.641052,7.86145 19.869354,17.785156 27.396484,28.934753c9.009399,13.333313 15.591949,28.431519 20.224609,44.137268c0,0.000061 0,0.000061 0,0.000061c5.85025,19.841125 8.583069,40.66217 9.394287,61.560303c1.042206,27.056152 -1.199738,54.231079 -5.264343,81.116577l11.137329,1.710327c3.624146,-27.530151 5.347839,-55.485962 3.737305,-83.364441c-1.238953,-21.540588 -4.541626,-43.110596 -11.047729,-63.730774c0,0 0,0 0,0c-5.154755,-16.342896 -12.42926,-32.068726 -22.230835,-45.991577c-8.206482,-11.648254 -18.206055,-21.933167 -29.661469,-30.039185c0,0 0,0 0,0c-10.153122,-7.178589 -21.399353,-12.60791 -33.17804,-15.991333c-10.679413,-3.068237 -21.788864,-4.470886 -32.845001,-4.044983c-5.229385,0.198364 -10.462402,0.806335 -15.610916,1.88092c-3.692551,0.756042 -6.061935,0.902466 -8.130249,0.844971c-2.068329,-0.057556 -3.82341,-0.30658 -6.150421,0.006775c-1.259262,0.163574 -2.690018,0.497192 -4.404419,1.181946c-1.04248,0.416443 -2.546494,1.364441 -4.165314,2.687134c-1.618805,1.322632 -3.344147,3.023682 -4.855347,4.853027c-1.511215,1.829346 -2.80249,3.783142 -3.693436,5.521606c-0.891006,1.738403 -1.387955,3.253784 -1.455719,4.206421c0.781723,0.023315 2.12709,-0.391357 3.763672,-0.925293c1.636581,-0.533936 3.569687,-1.178284 5.530609,-1.760681c1.960876,-0.582458 3.949127,-1.108215 5.666046,-1.568665c1.716904,-0.46051 3.161575,-0.864075 4.020615,-1.254028l0,-0.000122z" id="path3931-9" fill-rule="evenodd" fill="#542d0a"/>
   <path stroke="#542d0a" d="m389.993011,705.834167c21.766022,-2.799316 25.296967,-16.184387 28.058197,-22.283875c-11.530029,7.237305 -20.591309,-2.309021 -27.109436,9.296631" id="path3935-7" fill-rule="evenodd" fill="#542d0a"/>
   <path stroke="#542d0a" d="m446.855377,565.293762c38.33667,-4.930481 44.555695,-28.505737 49.419006,-39.248657c-20.307861,12.74707 -36.267517,-4.066956 -47.747986,16.374207" id="path3938-2" fill-rule="evenodd" fill="#542d0a"/>
   <path stroke="#542d0a" d="m482.167877,749.141602c1.45752,0.958862 2.53009,2.026489 3.332703,3.17688c0.802582,1.15033 1.336792,2.385498 1.688416,3.678589c0,0 0,0 0,0c0.446289,1.34967 0.576538,2.775146 0.56134,4.206665c-0.015167,1.43158 -0.178436,2.871094 -0.447784,4.236084c-0.269287,1.36499 -0.650787,2.655212 -1.161438,3.764771c-0.51062,1.109619 -1.155609,2.03717 -1.922363,2.667419c-0.921936,0.757751 -1.062531,1.683044 -1.033173,2.301331c0.919647,1.984192 3.006714,4.181702 6.3927,5.850952c1.83551,0.896606 4.284973,1.408508 7.278687,1.157349c0,0 0,0 0,0c2.938751,-0.368835 5.751648,-1.67395 8.062897,-3.724365c0.355804,-0.295166 0.699493,-0.597412 1.030304,-0.904541c5.22937,-5.949463 7.986664,-13.872131 7.487762,-22.261902c0,0 0,0 0,0c-1.286987,-11.136658 -6.845612,-20.102844 -13.835419,-25.717712c0,0 0,0 0,0c-8.316406,-7.131348 -19.007874,-10.457947 -29.667755,-9.217346c0,0 0,0 0,0c-9.023926,0.92157 -17.94809,5.234009 -24.731049,12.838745c-0.270966,0.328247 -0.536499,0.659485 -0.796692,0.993347c-3.233429,4.156189 -5.722473,8.806274 -7.417114,13.736023c-1.694641,4.92981 -2.594849,10.139404 -2.670166,15.354431c-0.20993,4.990417 0.279785,10.156738 1.580658,15.263245c1.300903,5.106445 3.413025,10.152893 6.450653,14.859436c3.20697,4.729858 7.143158,8.823975 11.618164,12.141602c4.475037,3.317688 9.488708,5.858887 14.808105,7.477112c10.062561,3.120239 21.106171,3.134277 31.49118,-0.422729c10.515503,-3.680664 19.867493,-10.615784 26.793945,-19.775696c6.730896,-8.847046 11.18042,-19.723694 12.380493,-31.297058c1.403137,-14.656799 -2.186096,-29.426086 -9.522217,-41.711609c-7.205261,-12.141174 -17.84259,-21.973022 -30.336334,-27.765015c-9.175446,-4.232788 -19.2117,-6.141846 -29.123413,-5.612488c-10.432404,0.592224 -20.442902,3.682312 -29.501801,8.304382c-11.527527,5.913818 -21.648346,13.880737 -30.546936,22.960388c-8.89856,9.079651 -16.576263,19.266785 -23.237671,29.664917c-9.644257,14.965942 -17.56958,30.675232 -23.67218,46.491638c-6.102631,15.816345 -10.381592,31.736023 -12.958862,47.208069c0,0.000061 0,0.000061 0,0.000061c-1.864746,11.215759 -2.849426,22.141541 -3.397339,32.591736c-0.201996,3.847046 -0.341034,7.611938 -0.54361,11.287048c-0.146179,2.54718 -0.254059,4.980042 -0.704865,7.230103l-10.803314,-2.356201c0.264954,-1.090942 0.292175,-2.972351 0.475555,-5.571716c0.192535,-3.603699 0.329956,-7.367249 0.538544,-11.284668c0,0 0,-0.000061 0,-0.000061c0.594513,-11.26239 1.722992,-22.631775 3.676971,-33.993896c6.122345,-35.184387 19.981232,-68.495117 39.364838,-97.555359c0,0 0,0 0,0c14.38559,-22.041809 33.457916,-42.527283 58.251556,-54.866516c10.000427,-4.910095 21.128174,-8.055786 32.822144,-8.535156c0,0 0,0 0.000061,0c11.164337,-0.37793 22.322113,1.976807 32.517975,6.909729c13.743927,6.713257 25.240021,17.695618 32.967194,31.276367c7.789246,13.534485 11.472534,29.749023 9.675354,46.123291c-1.547363,12.671875 -6.535034,24.501465 -14.148987,34.150574c0,0 0,0 0,0c-7.59491,9.713013 -17.802795,17.125061 -29.531708,21.031067c-11.220978,3.624878 -23.161621,3.552673 -34.242035,-0.075806c-11.207275,-3.580139 -21.304474,-11.044678 -28.374115,-21.705627c-6.312439,-10.123901 -8.95459,-21.622742 -8.338409,-32.616394c0.24115,-11.152283 4.112122,-22.670532 12.051361,-32.238281c7.486755,-8.236389 17.006348,-12.946716 26.714661,-14.05365c0,0 0,-0.000061 0,-0.000061c11.551086,-1.509033 23.196503,1.774109 32.615723,9.404785c7.811493,5.777893 14.176239,15.579102 16.125275,28.595459c0.026794,0.343994 0.049072,0.687317 0.06665,1.029968c0.160461,3.10437 -0.052185,5.971069 -0.513855,8.607605c-0.46167,2.636597 -1.173035,5.043945 -2.050476,7.243469c-1.7547,4.398987 -4.152283,7.969177 -6.859741,10.921631c-3.11084,3.260254 -6.709503,5.275818 -10.561554,6.253906c-4.140717,0.866821 -7.477692,0.849426 -10.086029,0.250977c-3.070099,-0.667053 -5.74765,-1.540955 -8.141907,-2.566833c-2.394226,-1.02594 -4.504822,-2.210999 -6.319458,-3.496399c-1.488708,-0.954163 -2.985535,-1.984741 -4.505829,-3.104858c-2.496918,-1.839722 -4.588562,-3.92865 -6.194977,-6.087463c0,0 0,0 0,0c-2.162994,-2.843323 -3.460724,-5.768188 -3.917236,-8.671631c-0.228241,-1.451721 -0.24472,-2.903137 -0.019012,-4.344055c0.225647,-1.440918 0.693787,-2.872437 1.467773,-4.260254c0.816467,-1.463989 1.844757,-2.883972 3.081299,-4.119995c1.236511,-1.235962 2.683929,-2.285706 4.311768,-3.016846c1.627838,-0.731201 3.437225,-1.141174 5.33963,-1.142822c1.902374,-0.001648 3.89328,0.406738 5.847504,1.233093c0.995361,0.422607 1.987854,0.956604 2.96698,1.60083l0,-0.000061z" id="path3940-7" fill-rule="evenodd" fill="#542d0a"/>
   <path stroke="#542d0a" d="m319.28009,330.573273c0,0 0.026276,0.36676 0.11554,1.037811c0.089661,0.670959 0.245209,1.649139 0.562683,2.861664c0.316986,1.212585 0.798523,2.660553 1.566254,4.224457c0.767273,1.564026 1.824188,3.241852 3.272156,4.871429c1.525146,1.522217 3.316254,2.76413 5.231354,3.626801c1.91452,0.862274 3.947693,1.344849 5.921936,1.455536c0,0 0,0 0,0c2.742126,0.152435 5.229736,-0.171478 7.257965,-0.643127c2.028168,-0.472168 3.600677,-1.08078 4.634857,-1.524506c0.341156,-0.140442 0.62735,-0.263885 0.854767,-0.363647c1.13681,-0.499847 2.254669,-1.282501 3.203003,-2.244263c0.947784,-0.962189 1.724365,-2.102142 2.233093,-3.287567c0.508606,-1.185944 0.749725,-2.414398 0.683624,-3.563995c-0.06662,-1.149963 -0.439667,-2.218689 -1.12384,-3.137451c-0.684082,-0.918335 -1.490021,-1.487732 -2.323364,-1.817261c-0.833618,-0.328949 -1.696228,-0.418762 -2.537689,-0.345764c-0.841461,0.072937 -1.662354,0.308258 -2.431183,0.657745c-0.769226,0.350098 -1.486877,0.814484 -2.127716,1.370636c-0.399292,0.346527 -0.79837,0.82373 -1.225098,1.386719c-0.832825,1.063904 -1.732697,2.483704 -2.86734,3.832031c-0.567322,0.674377 -1.192474,1.32843 -1.875061,1.907623c-0.682617,0.579193 -1.423218,1.082672 -2.194702,1.465088c-0.700653,0.34906 -1.434692,0.587006 -2.141479,0.691284c-1.23941,0.182861 -2.523682,0.145477 -3.770813,-0.118683c-1.247162,-0.264099 -2.456512,-0.754089 -3.568359,-1.437897c0,0 0,0 0,0c-1.63205,-1.071289 -2.927155,-2.418457 -3.920898,-3.738739c-0.993713,-1.320251 -1.690369,-2.613831 -2.182983,-3.703186c-0.492676,-1.089325 -0.785156,-1.977692 -0.96936,-2.577087c-0.184509,-0.598785 -0.262909,-0.913208 -0.277344,-0.885651z" id="path3943-2" fill-rule="evenodd" fill="#542d0a"/>
   <path stroke="#542d0a" d="m515.648315,375.23822c0,0 -0.510315,0.110718 -1.422424,0.333069c-0.911865,0.2229 -2.226624,0.558075 -3.833435,1.041992c-3.213226,0.966919 -7.603851,2.550262 -12.125702,5.049622c-2.277618,1.24765 -4.571686,2.788391 -6.703247,4.582825c-2.130676,1.794647 -4.09491,3.844238 -5.771423,6.000214c-2.033386,2.684296 -3.478638,5.437714 -4.448486,7.783539c-0.969818,2.345825 -1.480804,4.278839 -1.748718,5.39444c-0.113434,0.473511 -0.205383,0.963593 -0.273315,1.464478c-0.235413,1.899353 -0.131439,3.904449 0.294434,5.754272c0.426178,1.850342 1.170563,3.543182 2.13147,4.904114c0.961243,1.361481 2.134186,2.391998 3.401733,3.008057c1.267181,0.615448 2.625916,0.81778 4.011108,0.585266c1.475677,-0.247559 2.637604,-0.88324 3.555206,-1.696808c0.917633,-0.813568 1.592896,-1.807953 2.08429,-2.850861c0.490814,-1.042511 0.798431,-2.132385 0.966583,-3.200195c0.167603,-1.067352 0.197845,-2.114227 0.108917,-3.13385c-0.015076,-0.176147 -0.039581,-0.358673 -0.07251,-0.548248c-0.235138,-1.181274 -0.79425,-2.725433 -1.228577,-4.636932c-0.434021,-1.91098 -0.72641,-4.187286 -0.568542,-6.496002c0.1698,-2.522705 0.876953,-5.04483 1.945496,-6.94577c1.274719,-2.267212 2.860748,-4.312561 4.527588,-6.057098c0,0 0,0 0,0c1.852081,-1.947327 3.792633,-3.565002 5.615143,-4.888519c1.822418,-1.323578 3.527466,-2.354309 4.965363,-3.147858c1.437561,-0.794098 2.608459,-1.352875 3.405518,-1.724609c0.796997,-0.371704 1.220581,-0.557312 1.183594,-0.575134l-0.000061,0z" id="path3950-0" fill-rule="evenodd" fill="#542d0a"/>
   <path stroke="#542d0a" d="m147.766663,841.590637c-0.933456,1.520874 -1.472168,2.967407 -1.736557,4.369263c-0.257172,1.398193 -0.239105,2.754089 -0.036591,4.083496c0,0 0,0 0,0c0.144775,1.4198 0.604889,2.76709 1.199234,4.055542c0.594254,1.288391 1.323044,2.518738 2.116486,3.634644c0.800797,1.112244 1.666336,2.110107 2.575455,2.886536c0.909195,0.776611 1.868896,1.327393 2.817673,1.554749c1.146286,0.270325 1.645096,1.046326 1.866211,1.6203c-0.029007,2.20697 -1.02298,5.127197 -3.413574,8.154114c-1.294434,1.630859 -3.306854,3.191284 -6.117279,4.303467c0,0 0,0 0,0c-2.806961,0.980286 -5.883255,1.059753 -8.801758,0.236389c-0.44072,-0.108337 -0.876984,-0.226379 -1.300552,-0.356201c-7.139862,-3.04425 -12.844322,-8.978638 -15.788353,-16.794556c0,0 0,0 0,0c-3.347778,-10.651428 -1.947174,-21.252197 2.109566,-29.463684c0,0 0,0 0,0c4.633057,-10.17157 12.967529,-17.969299 23.114746,-21.61554c0,0 0,0 0,0c8.535599,-3.202698 18.356613,-3.293335 27.575943,0.552429c0.373825,0.177917 0.748688,0.358032 1.124924,0.541382c4.60321,2.316956 8.741501,5.408447 12.27066,9.11145c3.529114,3.702881 6.448807,8.016663 8.633057,12.699585c2.210098,4.421692 3.856491,9.317261 4.748383,14.519287c0.8918,5.202087 1.021866,10.714233 0.174927,16.334534c-0.983643,5.713257 -2.889008,11.180176 -5.597977,16.185913c-2.701782,5.002075 -6.214249,9.547241 -10.370453,13.391052c-7.841476,7.325195 -17.830872,12.280701 -28.667679,13.708008c-11.003555,1.373718 -22.273285,-0.717651 -32.25351,-5.905334c-9.670921,-4.994812 -18.097046,-12.847351 -23.87043,-22.782104c-7.204247,-12.634705 -9.934731,-27.606323 -8.271606,-42.004822c1.60434,-14.210999 7.246735,-27.866272 16.211365,-38.699646c6.58783,-7.93512 14.897339,-14.154114 24.077461,-18.108643c9.680481,-4.131592 19.991882,-5.816467 30.062668,-5.687622c12.82724,0.19165 25.208588,2.874146 36.937592,7.108093c11.72905,4.233948 22.79686,10.018982 33.037109,16.445862c14.784073,9.228638 28.32103,19.895203 40.243973,31.477966c11.922913,11.582703 22.245026,24.071472 30.837952,36.920227c0,0 0,0 0,0c6.227478,9.315613 11.541351,18.761536 16.268677,27.972534c1.73996,3.390686 3.388397,6.736511 5.058624,9.971497c1.169922,2.236389 2.249817,4.390808 3.569763,6.224976l8.822205,-6.966492c-0.682617,-0.867981 -1.466125,-2.559631 -2.68631,-4.828369c-1.634338,-3.174805 -3.282135,-6.519104 -5.057861,-9.969971c0,0 0,0 0,0c-5.099854,-9.923828 -10.717743,-19.710571 -17.09198,-29.114929c0,0 0,0 0,0c-19.778687,-29.10144 -45.808167,-53.042236 -75.110428,-70.666565c-21.941513,-13.508118 -47.495163,-23.510986 -74.92717,-23.582458c-11.041473,0.033386 -22.383102,2.165771 -33.15654,6.96344c0,0 0,0 0,0c-10.257973,4.654297 -19.4021,11.778137 -26.62619,20.802124c-9.723343,12.226501 -15.681366,27.309021 -17.170128,43.05365c-1.573456,15.734924 1.661514,32.053345 9.911682,46.069092c6.531982,10.773499 15.833351,19.247009 26.63224,24.570801c0,0 0,0 0,0c10.802887,5.392151 23.046799,7.528503 35.236786,5.817322c11.623276,-1.742004 22.399811,-7.150513 30.9552,-15.391235c8.691711,-8.254578 14.810669,-19.529297 16.890457,-32.338745c1.610886,-11.984253 -0.649551,-23.573608 -5.662735,-33.244141c0,0 0,0 0,0c-4.733902,-9.982971 -12.894348,-18.676453 -23.952332,-23.782104c-10.110001,-4.102783 -20.632309,-4.10498 -29.863754,-0.763428c0,0 0,0 0,0c-11.066193,3.804443 -20.272377,11.985352 -25.711105,23.106506c-4.728188,8.723511 -6.520645,20.441345 -3.010551,33.089783c0.109772,0.325256 0.234322,0.643372 0.351135,0.964355c1.118172,2.877869 2.468346,5.377625 3.952225,7.558228c1.483482,2.17981 3.10791,4.036865 4.78685,5.637329c3.372612,3.193542 6.986473,5.35199 10.635109,6.810852c4.130646,1.559875 8.203278,1.774109 12.089127,0.933411c4.096527,-1.067688 7.10466,-2.574829 9.228149,-4.285706c2.504105,-1.976013 4.574402,-3.96521 6.327362,-5.966187c1.745911,-1.996704 3.179016,-4.014954 4.301529,-5.990051c0.957092,-1.527832 1.897842,-3.131958 2.816864,-4.824646c1.518463,-2.784058 2.563995,-5.608826 3.142883,-8.280762c0,0 0,0 0,0c0.805649,-3.540466 0.796692,-6.769104 0.037369,-9.602295c-0.383179,-1.414368 -0.9561,-2.734985 -1.74408,-3.937927c-0.787506,-1.202271 -1.790649,-2.288574 -3.053406,-3.197693c-1.330093,-0.960205 -2.839584,-1.782959 -4.456955,-2.348938c-1.617477,-0.565979 -3.349457,-0.870056 -5.120285,-0.802429c-1.770889,0.067688 -3.57225,0.505615 -5.296005,1.35614c-1.723755,0.850525 -3.361969,2.11145 -4.794037,3.733521c-0.726974,0.826294 -1.408981,1.753174 -2.031448,2.773376z" id="path2404-5" fill-rule="evenodd" fill="#542d0a"/>
   <path stroke="#542d0a" d="m290.761139,622.377319c-0.090027,-0.095581 -0.174133,-0.18866 -0.252991,-0.279236c-0.5224,-0.597534 -0.997253,-0.895691 -1.48761,-1.04718c-0.490387,-0.151367 -0.997803,-0.166748 -1.571045,-0.185974c-1.607513,-0.000854 -3.876038,-0.628174 -6.174286,-0.871582c-1.149109,-0.121704 -2.30722,-0.151367 -3.387817,-0.018433c-1.080627,0.132935 -2.083282,0.430664 -2.903168,0.884521c-0.507568,0.280945 -1.108978,0.708435 -1.737274,1.211853c-0.628357,0.503418 -1.281982,1.083923 -1.92041,1.619995c-0.638428,0.536072 -1.262909,1.026794 -1.862976,1.298523c-0.600067,0.271729 -1.18161,0.321289 -1.710205,-0.047302c-0.46637,-0.325195 -1.043884,-1.515625 -1.451843,-3.307007c-0.407928,-1.791321 -0.618774,-4.181458 -0.398621,-6.759644c0,0 0,0 0,0c0.179749,-2.064148 0.600555,-4.213501 1.212616,-6.237305c0.612091,-2.023743 1.412445,-3.9198 2.242584,-5.547729c0.343719,-0.674072 0.767914,-1.481506 1.306519,-2.397644c0.918152,-1.567444 2.154022,-3.462708 3.882019,-5.494995c1.727936,-2.032349 3.952759,-4.205078 6.825562,-6.191345c2.114227,-1.45166 4.535858,-2.800781 7.26358,-3.902527c2.727753,-1.101624 5.762848,-1.955505 9.051605,-2.396362c6.450134,-0.697632 13.597107,-0.146362 20.856598,2.070374c3.629761,1.108398 7.281677,2.625916 10.849213,4.545044c3.567566,1.919189 7.050385,4.240967 10.323456,6.902954c4.98056,3.830078 9.678986,8.581665 13.740417,14.230164c4.357971,6.061096 7.295898,12.07959 9.334351,17.76178c1.459717,4.167053 2.456268,8.079041 3.163055,11.778503c0.706787,3.699585 1.121918,7.188232 1.345673,10.536987c0.223724,3.348816 0.254883,6.558777 0.143982,9.710999c-0.11087,3.152283 -0.364563,6.247498 -0.746521,9.365479c0,0 0,0 0,0c-0.772858,6.404907 -1.986176,12.949402 -3.884125,20.35022c-1.89798,7.400757 -4.494232,15.673706 -8.346527,25.277039c0,0 0,0 0,0c-2.69223,6.732544 -5.991364,14.145874 -10.211639,22.342102c-4.220276,8.196106 -9.370178,17.178162 -15.764893,26.940613l7.605286,5.495117c10.429352,-15.859253 19.576843,-33.03064 26.407318,-51.524658c5.622009,-15.109985 9.560974,-31.444641 10.473511,-48.546204c0,0 0,-0.000061 0,-0.000061c0.805206,-14.208008 -1.012573,-29.126587 -6.48999,-43.344421c-5.216278,-13.174316 -13.755432,-24.718445 -24.737762,-33.276672c-11.315582,-9.461975 -26.688782,-16.427917 -44.43927,-15.7276c-6.434845,0.480713 -12.87854,2.441956 -18.880493,5.939331c-1.836823,1.081482 -3.596069,2.312134 -5.263397,3.683838c-3.494446,2.877258 -6.194183,6.006531 -8.348206,9.141174c0,0 0,0 0,0c-2.004578,2.901733 -3.463074,5.829529 -4.551422,8.718201c-1.088318,2.888733 -1.806671,5.742798 -2.246552,8.600525c-0.484467,3.230286 -0.526917,6.388977 -0.152618,9.577881c0.37439,3.188904 1.164764,6.413574 2.530212,9.752014c1.465302,3.296387 3.380829,6.46051 5.91684,9.374512c2.04895,2.35437 4.657501,4.27533 7.466034,5.505859c2.750549,1.153198 5.526154,1.736145 8.07077,1.800354c2.544678,0.064331 4.858948,-0.381531 6.800232,-1.161499c1.941315,-0.779968 3.512512,-1.886658 4.656006,-3.145752c1.143433,-1.259033 1.86145,-2.668213 2.138794,-4.131409c0.296661,-1.564941 0.465088,-3.343384 0.431244,-5.173157c-0.033783,-1.829834 -0.270477,-3.712097 -0.714813,-5.48584c-0.444397,-1.773743 -1.098419,-3.435303 -1.877625,-4.831116c-0.389587,-0.697937 -0.808838,-1.329407 -1.237152,-1.890076c-0.428345,-0.560547 -0.86557,-1.048462 -1.286224,-1.493225z" id="path2451-0" fill-rule="evenodd" fill="#542d0a"/>
   <path stroke="#542d0a" d="m399.621613,276.425964c-2.980316,-3.494202 -4.946411,-7.55072 -6.665527,-11.838165c-1.719147,-4.287415 -3.202606,-8.814651 -5.109772,-13.087051c-0.468079,-1.048615 -0.97345,-2.088409 -1.515656,-3.117004c-1.885284,-3.553848 -4.230469,-6.943863 -6.971771,-10.037704c-2.741364,-3.093887 -5.878632,-5.890732 -9.306335,-8.271393c0,0 0,0 0,0c-2.849091,-1.954498 -5.794739,-3.565552 -8.755005,-4.86676c-2.960297,-1.301224 -5.935272,-2.293381 -8.876038,-3.036667c-2.751495,-0.698044 -5.453491,-1.185715 -8.113068,-1.547165c-1.777222,0.013992 -3.600952,-0.074646 -5.379852,0.000717c-1.778961,0.075409 -3.515778,0.31189 -5.145233,1.006088c2.446564,1.706696 4.768433,3.493118 6.986481,5.388733c2.218079,1.895599 4.329895,3.897491 6.317749,5.980988c0,0 0,0 0,0c4.355865,4.578949 8.058105,9.592102 11.12027,14.465881c1.733704,2.729813 3.347351,5.451904 5.032288,8.099182c1.684967,2.647278 3.442505,5.219269 5.479614,7.712769c0.164276,0.201111 0.331024,0.3992 0.500153,0.594482c2.962311,3.408936 6.68042,6.034882 10.844788,8.203827c4.164307,2.168976 8.75824,3.860748 13.214966,5.095459c1.281342,0.35498 2.47348,1.497345 3.137115,2.874634" id="path2426-1" fill-rule="evenodd" fill="#542d0a"/>
   <path stroke="#542d0a" d="m123.485703,573.233521c2.679871,-0.276917 4.594315,-0.6203 6.140442,-1.03949c1.546066,-0.419067 2.722061,-0.907776 3.915298,-1.37207c1.193176,-0.464233 2.404175,-0.904175 4.022202,-1.166382c1.617981,-0.262146 3.647598,-0.352112 6.443329,-0.013733c1.572632,0.201477 3.140762,0.437866 4.702896,0.709045c16.532547,2.860901 32.388092,9.443298 46.982819,18.197571c15.681366,9.412476 29.951218,21.338318 42.872208,34.668274c0,0 0,0 0,0c13.593597,14.030823 25.681198,29.647278 36.300095,46.280334c10.658905,16.701965 19.83017,34.429749 27.257568,52.902405c7.061615,17.57605 12.569244,35.80603 15.803436,54.417419c2.915985,16.854248 4.039886,34.002625 2.114197,50.672852c-0.874725,7.619324 -2.37265,15.115234 -4.645996,22.28125c-2.177002,6.863098 -5.050659,13.443054 -8.668396,19.466492l9.589935,6.194458c4.019989,-6.98407 7.146362,-14.464966 9.439972,-22.17218c2.391418,-8.037292 3.907715,-16.295593 4.710938,-24.576965c1.743652,-18.08313 0.284058,-36.249756 -3.085785,-53.796936c-3.710602,-19.385254 -9.719421,-38.173706 -17.29483,-56.13208c-7.960358,-18.882813 -17.676971,-36.916199 -28.880432,-53.833618c-11.155975,-16.851379 -23.818451,-32.635498 -37.997101,-46.782349c0,0 0,0 0,0c-13.470383,-13.446716 -28.371674,-25.443237 -44.712234,-34.878845c-15.215363,-8.792297 -31.782333,-15.291504 -49.042389,-17.982239c-1.634567,-0.253906 -3.274216,-0.471191 -4.917404,-0.651855c-2.866272,-0.32428 -5.03302,-0.681824 -6.836761,-1.099121c-1.80368,-0.417236 -3.243088,-0.889709 -4.642807,-1.352966c-1.399765,-0.463318 -2.759933,-0.917053 -4.404312,-1.244019c-1.644409,-0.327026 -3.575546,-0.530457 -6.098907,-0.420227c-1.306252,0.057129 -3.311241,0.463745 -5.593704,1.163391c-2.282448,0.699585 -4.83812,1.696167 -7.264359,2.856689c-2.426247,1.160522 -4.721245,2.483459 -6.548325,3.741821c-1.827026,1.258423 -3.188721,2.446411 -3.810646,3.30127c0.790443,0.368286 2.433479,0.570313 4.50428,0.727173c2.070847,0.15686 4.569473,0.275635 7.09687,0.414063c2.527405,0.138367 5.083549,0.296265 7.295784,0.416687c2.21228,0.120544 4.082588,0.198242 5.252121,0.103882z" id="path2430-7" fill-rule="evenodd" fill="#542d0a"/>
  </g>
  <g id="layer7" display="inline"/>
  <g id="layer9" display="inline"/>
  <g id="layer10" display="inline"/>
  <g id="layer5" display="inline"/>
  <circle id="svg_2" r="8.544006" cy="626.141001" cx="137.678894" stroke-width="5" stroke="#e27faf" fill="#e27faf"/>
  <circle id="svg_5" r="8.544006" cy="510.141001" cx="379.678894" stroke-width="5" stroke="#e27faf" fill="#e27faf"/>
  <circle id="svg_6" r="8.544006" cy="470.141001" cx="381.678894" stroke-width="5" stroke="#e27faf" fill="#e27faf"/>
  <circle id="svg_7" r="8.544006" cy="590.141001" cx="90.678894" stroke-width="5" stroke="#e27faf" fill="#e27faf"/>
  <circle id="svg_9" r="8.544006" cy="672.141001" cx="158.678894" stroke-width="5" stroke="#e27faf" fill="#e27faf"/>
  <circle id="svg_10" r="15.409302" cy="554.140991" cx="79.178894" stroke-width="5" stroke="#e27faf" fill="#e27faf"/>
  <circle id="svg_13" r="12.544006" cy="658.641012" cx="124.178894" stroke-width="5" stroke="#e27faf" fill="#e27faf"/>
  <circle id="svg_14" r="16.044006" cy="567.141018" cx="235.678894" stroke-width="5" stroke="#e27faf" fill="#e27faf"/>
  <circle id="svg_15" r="16.044006" cy="643.141018" cx="482.678894" stroke-width="5" stroke="#e27faf" fill="#e27faf"/>
  <circle id="svg_18" r="8.544006" cy="533.141008" cx="257.678894" stroke-width="5" stroke="#e27faf" fill="#e27faf"/>
  <circle id="svg_19" r="6.544006" cy="620.141004" cx="330.678894" stroke-width="5" stroke="#e27faf" fill="#e27faf"/>
  <circle id="svg_20" r="8.544006" cy="605.141008" cx="305.678894" stroke-width="5" stroke="#e27faf" fill="#e27faf"/>
  <circle id="svg_22" r="5.044006" cy="672.141009" cx="421.67889" stroke-width="5" stroke="#e27faf" fill="#e27faf"/>
  <circle id="svg_23" r="5.044006" cy="707.141009" cx="449.67889" stroke-width="5" stroke="#e27faf" fill="#e27faf"/>
  <circle id="svg_24" r="5.044006" cy="582.141009" cx="523.67889" stroke-width="5" stroke="#e27faf" fill="#e27faf"/>
  <circle id="svg_25" r="8.544006" cy="412.14101" cx="447.678894" stroke-width="5" stroke="#e27faf" fill="#e27faf"/>
  <circle id="svg_27" r="8.544006" cy="362.14101" cx="306.678894" stroke-width="5" stroke="#e27faf" fill="#e27faf"/>
  <circle id="svg_28" r="8.544006" cy="415.14101" cx="385.678894" stroke-width="5" stroke="#e27faf" fill="#e27faf"/>
  <circle id="svg_29" r="5.044006" cy="387.141017" cx="526.67889" stroke-width="5" stroke="#e27faf" fill="#e27faf"/>
  <circle id="svg_30" r="5.044006" cy="407.141017" cx="361.67889" stroke-width="5" stroke="#e27faf" fill="#e27faf"/>
  <circle id="svg_31" r="5.044006" cy="382.141017" cx="391.67889" stroke-width="5" stroke="#e27faf" fill="#e27faf"/>
  <circle id="svg_32" r="5.044006" cy="363.141017" cx="508.678886" stroke-width="5" stroke="#e27faf" fill="#e27faf"/>
  <circle id="svg_34" r="5.044006" cy="436.141017" cx="442.678886" stroke-width="5" stroke="#e27faf" fill="#e27faf"/>
  <circle id="svg_35" r="5.044006" cy="335.141017" cx="304.678886" stroke-width="5" stroke="#e27faf" fill="#e27faf"/>
  <circle id="svg_36" r="5.044006" cy="391.141017" cx="372.678886" stroke-width="5" stroke="#e27faf" fill="#e27faf"/>
  <circle id="svg_37" r="16.044006" cy="341.141025" cx="266.678894" stroke-width="5" stroke="#e27faf" fill="#e27faf"/>
  <circle id="svg_39" r="16.044006" cy="242.141025" cx="452.678894" stroke-width="5" stroke="#e27faf" fill="#e27faf"/>
  <circle id="svg_40" r="16.044006" cy="144.141002" cx="455.67889" stroke-width="5" stroke="#e27faf" fill="#e27faf"/>
  <circle id="svg_41" r="16.044006" cy="216.141002" cx="282.67889" stroke-width="5" stroke="#e27faf" fill="#e27faf"/>
  <circle id="svg_42" r="16.044006" cy="247.141002" cx="672.67889" stroke-width="5" stroke="#e27faf" fill="#e27faf"/>
  <circle id="svg_43" r="8.544006" cy="247.141016" cx="336.67889" stroke-width="5" stroke="#e27faf" fill="#e27faf"/>
  <circle id="svg_44" r="8.544006" cy="331.141016" cx="647.67889" stroke-width="5" stroke="#e27faf" fill="#e27faf"/>
  <circle id="svg_45" r="8.544006" cy="262.141016" cx="636.67889" stroke-width="5" stroke="#e27faf" fill="#e27faf"/>
  <circle id="svg_46" r="8.544006" cy="283.141016" cx="680.67889" stroke-width="5" stroke="#e27faf" fill="#e27faf"/>
  <circle id="svg_48" r="5.044006" cy="244.140994" cx="488.678883" stroke-width="5" stroke="#e27faf" fill="#e27faf"/>
  <circle id="svg_49" r="5.044006" cy="239.140994" cx="614.678883" stroke-width="5" stroke="#e27faf" fill="#e27faf"/>
  <circle id="svg_50" r="5.044006" cy="174.140994" cx="471.678883" stroke-width="5" stroke="#e27faf" fill="#e27faf"/>
  <circle id="svg_51" r="5.044006" cy="228.140994" cx="639.678883" stroke-width="5" stroke="#e27faf" fill="#e27faf"/>
  <circle id="svg_52" r="5.044006" cy="261.140994" cx="704.678883" stroke-width="5" stroke="#e27faf" fill="#e27faf"/>
  <circle id="svg_53" r="5.044006" cy="174.141002" cx="328.678883" stroke-width="5" stroke="#e27faf" fill="#e27faf"/>
  <circle id="svg_54" r="5.044006" cy="227.141002" cx="701.678883" stroke-width="5" stroke="#e27faf" fill="#e27faf"/>
  <circle id="svg_55" r="5.044006" cy="271.141002" cx="349.678883" stroke-width="5" stroke="#e27faf" fill="#e27faf"/>
  <circle id="svg_56" r="5.044006" cy="518.141002" cx="515.678883" stroke-width="5" stroke="#e27faf" fill="#e27faf"/>
  <circle id="svg_57" r="5.044006" cy="350.141002" cx="667.678883" stroke-width="5" stroke="#e27faf" fill="#e27faf"/>
  <circle id="svg_58" r="5.044006" cy="138.141002" cx="425.678883" stroke-width="5" stroke="#e27faf" fill="#e27faf"/>
  <circle id="svg_59" r="8.544006" cy="174.140989" cx="442.67889" stroke-width="5" stroke="#e27faf" fill="#e27faf"/>
  <circle id="svg_60" r="8.544006" cy="326.140989" cx="678.67889" stroke-width="5" stroke="#e27faf" fill="#e27faf"/>
  <circle id="svg_61" r="8.544006" cy="139.140989" cx="314.67889" stroke-width="5" stroke="#e27faf" fill="#e27faf"/>
  <circle id="svg_62" r="8.544006" cy="177.140989" cx="353.67889" stroke-width="5" stroke="#e27faf" fill="#e27faf"/>
  <circle id="svg_63" r="8.544006" cy="207.140989" cx="668.67889" stroke-width="5" stroke="#e27faf" fill="#e27faf"/>
  <circle id="svg_64" r="8.544006" cy="558.141018" cx="503.67889" stroke-width="5" stroke="#e27faf" fill="#e27faf"/>
  <circle id="svg_65" r="16.044006" cy="544.141033" cx="535.67889" stroke-width="5" stroke="#e27faf" fill="#e27faf"/>
 </g>
</svg>
